0
SECTION
2
HEADER
9
$ANGDIR
70
1
9
$AUNITS
70
0
9
$PROJECTNAME
1
FlightComputer
9
$TDCREATE
40
2459851.26089344
9
$INSUNITS
70
4
0
ENDSEC
0
SECTION
2
ENTITIES
0
POLYLINE
66
1
8
outline
10
0.0
20
0.0
30
0.0
70
1
0
VERTEX
8
0
10
20.32
20
2.54
30
0
0
VERTEX
8
0
10
74.60000000000001
20
2.54
30
0
0
VERTEX
8
0
10
74.60000000000001
20
80
30
0
0
VERTEX
8
0
10
20.32
20
80
30
0
0
VERTEX
8
0
10
20.32
20
2.54
30
0
0
SEQEND
0
POLYLINE
66
1
8
1_copper
10
0.0
20
0.0
30
0.0
70
1
0
VERTEX
8
0
10
46.9392
20
18.52395
30
0
0
VERTEX
8
0
10
46.9392
20
19.576050000000002
30
0
0
VERTEX
8
0
10
46.19525
20
20.32
30
0
0
VERTEX
8
0
10
45.143150000000006
20
20.32
30
0
0
VERTEX
8
0
10
44.3992
20
19.576050000000002
30
0
0
VERTEX
8
0
10
44.3992
20
18.52395
30
0
0
VERTEX
8
0
10
45.143150000000006
20
17.78
30
0
0
VERTEX
8
0
10
46.19525
20
17.78
30
0
0
SEQEND
0
POLYLINE
66
1
8
1_copper
10
0.0
20
0.0
30
0.0
70
1
0
VERTEX
8
0
10
55.4482
20
18.702806250000002
30
0
0
VERTEX
8
0
10
55.4482
20
19.39719375
30
0
0
VERTEX
8
0
10
54.95719375
20
19.8882
30
0
0
VERTEX
8
0
10
54.262806250000004
20
19.8882
30
0
0
VERTEX
8
0
10
53.771800000000006
20
19.39719375
30
0
0
VERTEX
8
0
10
53.771800000000006
20
18.702806250000002
30
0
0
VERTEX
8
0
10
54.262806250000004
20
18.2118
30
0
0
VERTEX
8
0
10
54.95719375
20
18.2118
30
0
0
SEQEND
0
POLYLINE
66
1
8
16_copper
10
0.0
20
0.0
30
0.0
70
1
0
VERTEX
8
0
10
46.9392
20
18.52395
30
0
0
VERTEX
8
0
10
46.9392
20
19.576050000000002
30
0
0
VERTEX
8
0
10
46.19525
20
20.32
30
0
0
VERTEX
8
0
10
45.143150000000006
20
20.32
30
0
0
VERTEX
8
0
10
44.3992
20
19.576050000000002
30
0
0
VERTEX
8
0
10
44.3992
20
18.52395
30
0
0
VERTEX
8
0
10
45.143150000000006
20
17.78
30
0
0
VERTEX
8
0
10
46.19525
20
17.78
30
0
0
SEQEND
0
POLYLINE
66
1
8
16_copper
10
0.0
20
0.0
30
0.0
70
1
0
VERTEX
8
0
10
55.4482
20
18.702806250000002
30
0
0
VERTEX
8
0
10
55.4482
20
19.39719375
30
0
0
VERTEX
8
0
10
54.95719375
20
19.8882
30
0
0
VERTEX
8
0
10
54.262806250000004
20
19.8882
30
0
0
VERTEX
8
0
10
53.771800000000006
20
19.39719375
30
0
0
VERTEX
8
0
10
53.771800000000006
20
18.702806250000002
30
0
0
VERTEX
8
0
10
54.262806250000004
20
18.2118
30
0
0
VERTEX
8
0
10
54.95719375
20
18.2118
30
0
0
SEQEND
0
POLYLINE
66
1
8
1_copper
10
0.0
20
0.0
30
0.0
70
1
0
VERTEX
8
0
10
39.4208
20
18.52395
30
0
0
VERTEX
8
0
10
39.4208
20
19.576050000000002
30
0
0
VERTEX
8
0
10
38.67685
20
20.32
30
0
0
VERTEX
8
0
10
37.62475
20
20.32
30
0
0
VERTEX
8
0
10
36.8808
20
19.576050000000002
30
0
0
VERTEX
8
0
10
36.8808
20
18.52395
30
0
0
VERTEX
8
0
10
37.62475
20
17.78
30
0
0
VERTEX
8
0
10
38.67685
20
17.78
30
0
0
SEQEND
0
POLYLINE
66
1
8
16_copper
10
0.0
20
0.0
30
0.0
70
1
0
VERTEX
8
0
10
39.4208
20
18.52395
30
0
0
VERTEX
8
0
10
39.4208
20
19.576050000000002
30
0
0
VERTEX
8
0
10
38.67685
20
20.32
30
0
0
VERTEX
8
0
10
37.62475
20
20.32
30
0
0
VERTEX
8
0
10
36.8808
20
19.576050000000002
30
0
0
VERTEX
8
0
10
36.8808
20
18.52395
30
0
0
VERTEX
8
0
10
37.62475
20
17.78
30
0
0
VERTEX
8
0
10
38.67685
20
17.78
30
0
0
SEQEND
0
POLYLINE
66
1
8
1_copper
10
0.0
20
0.0
30
0.0
70
1
0
VERTEX
8
0
10
41.3004
20
8.61645625
30
0
0
VERTEX
8
0
10
41.3004
20
9.16354375
30
0
0
VERTEX
8
0
10
40.91354375
20
9.5504
30
0
0
VERTEX
8
0
10
40.36645625
20
9.5504
30
0
0
VERTEX
8
0
10
39.979600000000005
20
9.16354375
30
0
0
VERTEX
8
0
10
39.979600000000005
20
8.61645625
30
0
0
VERTEX
8
0
10
40.36645625
20
8.2296
30
0
0
VERTEX
8
0
10
40.91354375
20
8.2296
30
0
0
SEQEND
0
POLYLINE
66
1
8
16_copper
10
0.0
20
0.0
30
0.0
70
1
0
VERTEX
8
0
10
41.3004
20
8.61645625
30
0
0
VERTEX
8
0
10
41.3004
20
9.16354375
30
0
0
VERTEX
8
0
10
40.91354375
20
9.5504
30
0
0
VERTEX
8
0
10
40.36645625
20
9.5504
30
0
0
VERTEX
8
0
10
39.979600000000005
20
9.16354375
30
0
0
VERTEX
8
0
10
39.979600000000005
20
8.61645625
30
0
0
VERTEX
8
0
10
40.36645625
20
8.2296
30
0
0
VERTEX
8
0
10
40.91354375
20
8.2296
30
0
0
SEQEND
0
POLYLINE
66
1
8
1_copper
10
0.0
20
0.0
30
0.0
70
1
0
VERTEX
8
0
10
52.9082
20
18.702806250000002
30
0
0
VERTEX
8
0
10
52.9082
20
19.39719375
30
0
0
VERTEX
8
0
10
52.41719375
20
19.8882
30
0
0
VERTEX
8
0
10
51.722806250000005
20
19.8882
30
0
0
VERTEX
8
0
10
51.2318
20
19.39719375
30
0
0
VERTEX
8
0
10
51.2318
20
18.702806250000002
30
0
0
VERTEX
8
0
10
51.722806250000005
20
18.2118
30
0
0
VERTEX
8
0
10
52.41719375
20
18.2118
30
0
0
SEQEND
0
POLYLINE
66
1
8
1_copper
10
0.0
20
0.0
30
0.0
70
1
0
VERTEX
8
0
10
56.540400000000005
20
8.61645625
30
0
0
VERTEX
8
0
10
56.540400000000005
20
9.16354375
30
0
0
VERTEX
8
0
10
56.153543750000004
20
9.5504
30
0
0
VERTEX
8
0
10
55.60645625
20
9.5504
30
0
0
VERTEX
8
0
10
55.2196
20
9.16354375
30
0
0
VERTEX
8
0
10
55.2196
20
8.61645625
30
0
0
VERTEX
8
0
10
55.60645625
20
8.2296
30
0
0
VERTEX
8
0
10
56.153543750000004
20
8.2296
30
0
0
SEQEND
0
POLYLINE
66
1
8
16_copper
10
0.0
20
0.0
30
0.0
70
1
0
VERTEX
8
0
10
52.9082
20
18.702806250000002
30
0
0
VERTEX
8
0
10
52.9082
20
19.39719375
30
0
0
VERTEX
8
0
10
52.41719375
20
19.8882
30
0
0
VERTEX
8
0
10
51.722806250000005
20
19.8882
30
0
0
VERTEX
8
0
10
51.2318
20
19.39719375
30
0
0
VERTEX
8
0
10
51.2318
20
18.702806250000002
30
0
0
VERTEX
8
0
10
51.722806250000005
20
18.2118
30
0
0
VERTEX
8
0
10
52.41719375
20
18.2118
30
0
0
SEQEND
0
POLYLINE
66
1
8
16_copper
10
0.0
20
0.0
30
0.0
70
1
0
VERTEX
8
0
10
56.540400000000005
20
8.61645625
30
0
0
VERTEX
8
0
10
56.540400000000005
20
9.16354375
30
0
0
VERTEX
8
0
10
56.153543750000004
20
9.5504
30
0
0
VERTEX
8
0
10
55.60645625
20
9.5504
30
0
0
VERTEX
8
0
10
55.2196
20
9.16354375
30
0
0
VERTEX
8
0
10
55.2196
20
8.61645625
30
0
0
VERTEX
8
0
10
55.60645625
20
8.2296
30
0
0
VERTEX
8
0
10
56.153543750000004
20
8.2296
30
0
0
SEQEND
0
CIRCLE
8
drills_PTH
10
72.39
20
56.160000000000004
30
0
40
0.7000000000000001
0
CIRCLE
8
drills_PTH
10
72.39
20
65.76
30
0
40
0.7000000000000001
0
CIRCLE
8
drills_PTH
10
45.669200000000004
20
19.05
30
0
40
0.508
0
CIRCLE
8
drills_PTH
10
38.150800000000004
20
19.05
30
0
40
0.508
0
CIRCLE
8
drills_PTH
10
64.77
20
45.72
30
0
40
0.5
0
CIRCLE
8
drills_PTH
10
67.31
20
45.72
30
0
40
0.5
0
CIRCLE
8
drills_PTH
10
54.61
20
33.02
30
0
40
0.5
0
CIRCLE
8
drills_PTH
10
57.150000000000006
20
33.02
30
0
40
0.5
0
CIRCLE
8
drills_PTH
10
59.690000000000005
20
33.02
30
0
40
0.5
0
CIRCLE
8
drills_PTH
10
62.230000000000004
20
33.02
30
0
40
0.5
0
CIRCLE
8
drills_PTH
10
64.77
20
33.02
30
0
40
0.5
0
CIRCLE
8
drills_PTH
10
67.31
20
33.02
30
0
40
0.5
0
CIRCLE
8
drills_PTH
10
26.67
20
33.02
30
0
40
0.5
0
CIRCLE
8
drills_PTH
10
29.21
20
33.02
30
0
40
0.5
0
CIRCLE
8
drills_PTH
10
31.75
20
33.02
30
0
40
0.5
0
CIRCLE
8
drills_PTH
10
34.29
20
33.02
30
0
40
0.5
0
CIRCLE
8
drills_PTH
10
36.83
20
33.02
30
0
40
0.5
0
CIRCLE
8
drills_PTH
10
39.370000000000005
20
33.02
30
0
40
0.5
0
CIRCLE
8
drills_PTH
10
41.910000000000004
20
33.02
30
0
40
0.5
0
CIRCLE
8
drills_PTH
10
54.61
20
57.150000000000006
30
0
40
0.5
0
CIRCLE
8
drills_PTH
10
52.07
20
57.150000000000006
30
0
40
0.5
0
CIRCLE
8
drills_PTH
10
49.53
20
57.150000000000006
30
0
40
0.5
0
CIRCLE
8
drills_PTH
10
46.99
20
57.150000000000006
30
0
40
0.5
0
CIRCLE
8
drills_PTH
10
44.45
20
57.150000000000006
30
0
40
0.5
0
CIRCLE
8
drills_PTH
10
62.230000000000004
20
45.72
30
0
40
0.5
0
CIRCLE
8
drills_PTH
10
59.690000000000005
20
45.72
30
0
40
0.5
0
CIRCLE
8
drills_PTH
10
41.910000000000004
20
57.150000000000006
30
0
40
0.5
0
CIRCLE
8
drills_PTH
10
39.370000000000005
20
57.150000000000006
30
0
40
0.5
0
CIRCLE
8
drills_PTH
10
57.150000000000006
20
45.72
30
0
40
0.5
0
CIRCLE
8
drills_PTH
10
54.61
20
45.72
30
0
40
0.5
0
CIRCLE
8
drills_PTH
10
26.67
20
77.47
30
0
40
0.5
0
CIRCLE
8
drills_PTH
10
29.21
20
77.47
30
0
40
0.5
0
CIRCLE
8
drills_PTH
10
31.75
20
77.47
30
0
40
0.5
0
CIRCLE
8
drills_PTH
10
34.29
20
77.47
30
0
40
0.5
0
CIRCLE
8
drills_PTH
10
36.83
20
77.47
30
0
40
0.5
0
CIRCLE
8
drills_PTH
10
39.370000000000005
20
77.47
30
0
40
0.5
0
CIRCLE
8
drills_PTH
10
41.910000000000004
20
77.47
30
0
40
0.5
0
CIRCLE
8
drills_PTH
10
44.45
20
77.47
30
0
40
0.5
0
CIRCLE
8
drills_PTH
10
46.99
20
77.47
30
0
40
0.5
0
CIRCLE
8
drills_PTH
10
49.53
20
77.47
30
0
40
0.5
0
CIRCLE
8
drills_PTH
10
52.07
20
77.47
30
0
40
0.5
0
CIRCLE
8
drills_PTH
10
54.61
20
77.47
30
0
40
0.5
0
CIRCLE
8
drills_PTH
10
57.150000000000006
20
77.47
30
0
40
0.5
0
CIRCLE
8
drills_PTH
10
59.690000000000005
20
77.47
30
0
40
0.5
0
CIRCLE
8
drills_PTH
10
62.230000000000004
20
77.47
30
0
40
0.5
0
CIRCLE
8
drills_PTH
10
64.77
20
77.47
30
0
40
0.5
0
CIRCLE
8
drills_PTH
10
26.67
20
57.150000000000006
30
0
40
0.5
0
CIRCLE
8
drills_PTH
10
29.21
20
57.150000000000006
30
0
40
0.5
0
CIRCLE
8
drills_PTH
10
31.75
20
57.150000000000006
30
0
40
0.5
0
CIRCLE
8
drills_PTH
10
34.29
20
57.150000000000006
30
0
40
0.5
0
CIRCLE
8
drills_PTH
10
36.83
20
57.150000000000006
30
0
40
0.5
0
CIRCLE
8
drills_PTH
10
55.88
20
8.89
30
0
40
0.40640000000000004
0
CIRCLE
8
drills_PTH
10
40.64
20
8.89
30
0
40
0.40640000000000004
0
CIRCLE
8
drills_PTH
10
54.61
20
19.05
30
0
40
0.40640000000000004
0
CIRCLE
8
drills_PTH
10
52.07
20
19.05
30
0
40
0.40640000000000004
0
CIRCLE
8
drills_PTH
10
72.39
20
62.86000000000001
30
0
40
0.35000000000000003
0
CIRCLE
8
drills_PTH
10
72.39
20
58.96
30
0
40
0.35000000000000003
0
CIRCLE
8
drills_PTH
10
72.39
20
60.96
30
0
40
0.35000000000000003
0
ENDSEC
0
EOF