M48
;GenerationSoftware,Autodesk,EAGLE,9.6.2*%
;CreationDate,2022-09-29T10:01:36Z*%
FMAT,2
ICI,OFF
METRIC,TZ,000.000
T6C0.700
T5C0.813
T4C1.000
T3C1.016
T2C1.270
T1C1.400
%
G90
M71
T1
X68580Y56160
X68580Y65760
T2
X48260Y29210
T3
X38151Y19050
X45669Y19050
T4
X64770Y45720
X67310Y45720
X54610Y33020
X57150Y33020
X59690Y33020
X62230Y33020
X64770Y33020
X67310Y33020
X26670Y33020
X29210Y33020
X31750Y33020
X34290Y33020
X36830Y33020
X39370Y33020
X41910Y33020
X26670Y57150
X29210Y57150
X31750Y57150
X34290Y57150
X36830Y57150
X57150Y45720
X54610Y45720
X39370Y57150
X41910Y57150
X59690Y45720
X62230Y45720
X64770Y77470
X62230Y77470
X59690Y77470
X57150Y77470
X54610Y77470
X52070Y77470
X49530Y77470
X46990Y77470
X44450Y77470
X41910Y77470
X39370Y77470
X36830Y77470
X34290Y77470
X31750Y77470
X29210Y77470
X26670Y77470
X54610Y57150
X52070Y57150
X49530Y57150
X46990Y57150
X44450Y57150
T5
X55880Y8890
X40640Y8890
X54610Y19050
X52070Y19050
T6
X68580Y62860
X68580Y58960
X68580Y60960
M30