G04 EAGLE Gerber RS-274X export*
G75*
%MOMM*%
%FSLAX34Y34*%
%LPD*%
%INSoldermask Top*%
%IPPOS*%
%AMOC8*
5,1,8,0,0,1.08239X$1,22.5*%
G01*
%ADD10C,1.879600*%
%ADD11C,1.981200*%
%ADD12P,2.034460X8X22.500000*%
%ADD13P,1.649562X8X22.500000*%
%ADD14C,1.625600*%
%ADD15C,2.743200*%
%ADD16P,2.969212X8X22.500000*%
%ADD17C,0.254000*%


D10*
X546100Y457200D03*
X571500Y457200D03*
X596900Y457200D03*
X622300Y457200D03*
X647700Y457200D03*
X673100Y457200D03*
D11*
X546100Y330200D03*
X571500Y330200D03*
X596900Y330200D03*
X622300Y330200D03*
X647700Y330200D03*
X673100Y330200D03*
X266700Y330200D03*
X292100Y330200D03*
X317500Y330200D03*
X342900Y330200D03*
X368300Y330200D03*
X393700Y330200D03*
X419100Y330200D03*
D12*
X520700Y190500D03*
X546100Y190500D03*
D13*
X406400Y88900D03*
X558800Y88900D03*
D14*
X685800Y609600D03*
D15*
X685800Y657600D03*
X685800Y561600D03*
D14*
X685800Y589600D03*
X685800Y628600D03*
D16*
X381508Y190500D03*
X456692Y190500D03*
D10*
X647700Y774700D03*
X622300Y774700D03*
X596900Y774700D03*
X571500Y774700D03*
X546100Y774700D03*
X520700Y774700D03*
X495300Y774700D03*
X469900Y774700D03*
X444500Y774700D03*
X419100Y774700D03*
X393700Y774700D03*
X368300Y774700D03*
X342900Y774700D03*
X317500Y774700D03*
X292100Y774700D03*
X266700Y774700D03*
X546100Y571500D03*
X520700Y571500D03*
X495300Y571500D03*
X469900Y571500D03*
X444500Y571500D03*
X419100Y571500D03*
X393700Y571500D03*
X368300Y571500D03*
X342900Y571500D03*
X317500Y571500D03*
X292100Y571500D03*
X266700Y571500D03*
D15*
X482600Y292100D03*
D17*
X215900Y25400D02*
X720600Y25400D01*
X720600Y1041300D01*
X215900Y1041300D01*
X215900Y25400D01*
M02*
